<mxfile host="app.diagrams.net" modified="2024-06-22T15:49:36.313Z" agent="Mozilla/5.0 (Windows NT 10.0; Win64; x64) AppleWebKit/537.36 (KHTML, like Gecko) Chrome/126.0.0.0 Safari/537.36" etag="AY6_a1QlL71Co16KG5Ej" version="24.6.2" type="device">
  <diagram name="Page-1" id="DUEZDPzVf516fYpXRpu6">
    <mxGraphModel dx="1450" dy="972" grid="0" gridSize="10" guides="1" tooltips="1" connect="1" arrows="1" fold="1" page="0" pageScale="1" pageWidth="1100" pageHeight="850" math="0" shadow="0">
      <root>
        <mxCell id="0" />
        <mxCell id="1" parent="0" />
        <mxCell id="VEPIWmzKljLsFqg-EmJU-22" value="&lt;span style=&quot;font-family: -apple-system, system-ui, BlinkMacSystemFont, &amp;quot;Segoe UI&amp;quot;, Roboto, &amp;quot;Helvetica Neue&amp;quot;, &amp;quot;Fira Sans&amp;quot;, Ubuntu, Oxygen, &amp;quot;Oxygen Sans&amp;quot;, Cantarell, &amp;quot;Droid Sans&amp;quot;, &amp;quot;Apple Color Emoji&amp;quot;, &amp;quot;Segoe UI Emoji&amp;quot;, &amp;quot;Segoe UI Emoji&amp;quot;, &amp;quot;Segoe UI Symbol&amp;quot;, &amp;quot;Lucida Grande&amp;quot;, Helvetica, Arial, sans-serif; font-size: 14px; text-align: start;&quot;&gt;www.linkedin.com/in/devender-sharma10&lt;/span&gt;" style="text;strokeColor=none;align=center;fillColor=none;html=1;verticalAlign=middle;whiteSpace=wrap;rounded=0;fontSize=14;fontColor=#000000;labelBackgroundColor=none;textShadow=0;labelBorderColor=none;fontStyle=2;rotation=0;textOpacity=50;" parent="1" vertex="1">
          <mxGeometry x="178" y="298" width="270" height="23.33" as="geometry" />
        </mxCell>
        <mxCell id="VEPIWmzKljLsFqg-EmJU-12" value="" style="endArrow=none;html=1;rounded=0;strokeColor=#000000;fontSize=12;fontColor=#000000;startSize=8;endSize=8;curved=1;fillColor=#A8DADC;strokeWidth=3;labelBorderColor=none;textShadow=0;" parent="1" edge="1">
          <mxGeometry width="50" height="50" relative="1" as="geometry">
            <mxPoint x="245" y="361" as="sourcePoint" />
            <mxPoint x="246" y="286" as="targetPoint" />
          </mxGeometry>
        </mxCell>
        <mxCell id="VEPIWmzKljLsFqg-EmJU-11" value="" style="endArrow=none;html=1;rounded=0;strokeColor=#000000;fontSize=12;fontColor=#000000;startSize=8;endSize=8;curved=1;fillColor=#A8DADC;strokeWidth=3;labelBorderColor=none;textShadow=0;" parent="1" edge="1">
          <mxGeometry width="50" height="50" relative="1" as="geometry">
            <mxPoint x="174" y="361" as="sourcePoint" />
            <mxPoint x="175" y="294" as="targetPoint" />
          </mxGeometry>
        </mxCell>
        <mxCell id="VEPIWmzKljLsFqg-EmJU-2" value="&lt;h1 style=&quot;line-height: 140%;&quot;&gt;&lt;br&gt;&lt;/h1&gt;" style="shape=trapezoid;perimeter=trapezoidPerimeter;whiteSpace=wrap;html=1;fixedSize=1;rotation=90;strokeWidth=4;fillColor=#e1d5e7;strokeColor=#000000;rounded=0;labelBackgroundColor=none;" parent="1" vertex="1">
          <mxGeometry x="91.5" y="108.5" width="222.5" height="165.5" as="geometry" />
        </mxCell>
        <mxCell id="VEPIWmzKljLsFqg-EmJU-3" value="&lt;b style=&quot;font-size: 32px;&quot;&gt;&lt;font style=&quot;font-size: 32px;&quot;&gt;4x1&lt;/font&gt;&lt;/b&gt;&lt;div style=&quot;font-size: 32px;&quot;&gt;&lt;b style=&quot;&quot;&gt;&lt;font style=&quot;font-size: 32px;&quot;&gt;MUX&lt;/font&gt;&lt;/b&gt;&lt;/div&gt;" style="text;strokeColor=none;align=center;fillColor=none;html=1;verticalAlign=middle;whiteSpace=wrap;rounded=0;fontSize=16;fontColor=#1D3557;strokeWidth=3;shadow=1;" parent="1" vertex="1">
          <mxGeometry x="146.25" y="138" width="113" height="94" as="geometry" />
        </mxCell>
        <mxCell id="VEPIWmzKljLsFqg-EmJU-6" value="" style="endArrow=none;html=1;rounded=0;strokeColor=#000000;fontSize=12;fontColor=#1D3557;startSize=8;endSize=8;curved=1;fillColor=#A8DADC;strokeWidth=4;entryX=0.145;entryY=1.004;entryDx=0;entryDy=0;entryPerimeter=0;" parent="1" edge="1">
          <mxGeometry width="50" height="50" relative="1" as="geometry">
            <mxPoint x="-50" y="113" as="sourcePoint" />
            <mxPoint x="118.33799999999997" y="110.26249999999993" as="targetPoint" />
          </mxGeometry>
        </mxCell>
        <mxCell id="VEPIWmzKljLsFqg-EmJU-7" value="" style="endArrow=none;html=1;rounded=0;strokeColor=#000000;fontSize=12;fontColor=#1D3557;startSize=8;endSize=8;curved=1;fillColor=#A8DADC;strokeWidth=4;entryX=0.145;entryY=1.004;entryDx=0;entryDy=0;entryPerimeter=0;" parent="1" edge="1">
          <mxGeometry width="50" height="50" relative="1" as="geometry">
            <mxPoint x="-50" y="161" as="sourcePoint" />
            <mxPoint x="118" y="161" as="targetPoint" />
          </mxGeometry>
        </mxCell>
        <mxCell id="VEPIWmzKljLsFqg-EmJU-8" value="" style="endArrow=none;html=1;rounded=0;strokeColor=#000000;fontSize=12;fontColor=#1D3557;startSize=8;endSize=8;curved=1;fillColor=#A8DADC;strokeWidth=4;entryX=0.145;entryY=1.004;entryDx=0;entryDy=0;entryPerimeter=0;" parent="1" edge="1">
          <mxGeometry width="50" height="50" relative="1" as="geometry">
            <mxPoint x="-50" y="213" as="sourcePoint" />
            <mxPoint x="118" y="213" as="targetPoint" />
          </mxGeometry>
        </mxCell>
        <mxCell id="VEPIWmzKljLsFqg-EmJU-9" value="" style="endArrow=none;html=1;rounded=0;strokeColor=#000000;fontSize=12;fontColor=#1D3557;startSize=8;endSize=8;curved=1;fillColor=#A8DADC;strokeWidth=4;entryX=0.145;entryY=1.004;entryDx=0;entryDy=0;entryPerimeter=0;" parent="1" edge="1">
          <mxGeometry width="50" height="50" relative="1" as="geometry">
            <mxPoint x="-50" y="264" as="sourcePoint" />
            <mxPoint x="118" y="264" as="targetPoint" />
          </mxGeometry>
        </mxCell>
        <mxCell id="VEPIWmzKljLsFqg-EmJU-10" value="" style="endArrow=none;html=1;rounded=0;strokeColor=#000000;fontSize=12;fontColor=#1D3557;startSize=8;endSize=8;curved=1;fillColor=#A8DADC;strokeWidth=4;" parent="1" edge="1">
          <mxGeometry width="50" height="50" relative="1" as="geometry">
            <mxPoint x="285" y="184.57999999999998" as="sourcePoint" />
            <mxPoint x="424" y="185" as="targetPoint" />
          </mxGeometry>
        </mxCell>
        <mxCell id="VEPIWmzKljLsFqg-EmJU-13" value="&lt;font face=&quot;Helvetica&quot; style=&quot;font-size: 18px;&quot;&gt;&lt;b style=&quot;&quot;&gt;sel[1]&lt;/b&gt;&lt;/font&gt;" style="text;strokeColor=none;align=center;fillColor=none;html=1;verticalAlign=middle;whiteSpace=wrap;rounded=0;fontSize=16;fontColor=#1D3557;" parent="1" vertex="1">
          <mxGeometry x="143" y="361" width="60" height="29.83" as="geometry" />
        </mxCell>
        <mxCell id="VEPIWmzKljLsFqg-EmJU-14" value="&lt;font face=&quot;Helvetica&quot; style=&quot;font-size: 18px;&quot;&gt;&lt;b style=&quot;&quot;&gt;sel[0]&lt;/b&gt;&lt;/font&gt;" style="text;strokeColor=none;align=center;fillColor=none;html=1;verticalAlign=middle;whiteSpace=wrap;rounded=0;fontSize=16;fontColor=#1D3557;" parent="1" vertex="1">
          <mxGeometry x="218" y="361" width="60" height="29.83" as="geometry" />
        </mxCell>
        <mxCell id="VEPIWmzKljLsFqg-EmJU-15" value="&lt;span style=&quot;font-size: 18px;&quot;&gt;&lt;b&gt;Y&lt;/b&gt;&lt;/span&gt;" style="text;strokeColor=none;align=center;fillColor=none;html=1;verticalAlign=middle;whiteSpace=wrap;rounded=0;fontSize=16;fontColor=#1D3557;" parent="1" vertex="1">
          <mxGeometry x="411" y="170.09" width="60" height="29.83" as="geometry" />
        </mxCell>
        <mxCell id="VEPIWmzKljLsFqg-EmJU-16" value="&lt;font face=&quot;Helvetica&quot; style=&quot;font-size: 18px;&quot;&gt;&lt;b style=&quot;&quot;&gt;in[0]&lt;/b&gt;&lt;/font&gt;" style="text;strokeColor=none;align=center;fillColor=none;html=1;verticalAlign=middle;whiteSpace=wrap;rounded=0;fontSize=16;fontColor=#1D3557;" parent="1" vertex="1">
          <mxGeometry x="-102" y="96" width="60" height="29.83" as="geometry" />
        </mxCell>
        <mxCell id="VEPIWmzKljLsFqg-EmJU-17" value="&lt;font face=&quot;Helvetica&quot; style=&quot;font-size: 18px;&quot;&gt;&lt;b style=&quot;&quot;&gt;in[1]&lt;/b&gt;&lt;/font&gt;" style="text;strokeColor=none;align=center;fillColor=none;html=1;verticalAlign=middle;whiteSpace=wrap;rounded=0;fontSize=16;fontColor=#1D3557;" parent="1" vertex="1">
          <mxGeometry x="-103" y="144" width="60" height="29.83" as="geometry" />
        </mxCell>
        <mxCell id="VEPIWmzKljLsFqg-EmJU-18" value="&lt;font face=&quot;Helvetica&quot; style=&quot;font-size: 18px;&quot;&gt;&lt;b style=&quot;&quot;&gt;in[2]&lt;/b&gt;&lt;/font&gt;" style="text;strokeColor=none;align=center;fillColor=none;html=1;verticalAlign=middle;whiteSpace=wrap;rounded=0;fontSize=16;fontColor=#1D3557;" parent="1" vertex="1">
          <mxGeometry x="-103" y="196" width="60" height="29.83" as="geometry" />
        </mxCell>
        <mxCell id="VEPIWmzKljLsFqg-EmJU-19" value="&lt;font face=&quot;Helvetica&quot; style=&quot;font-size: 18px;&quot;&gt;&lt;b style=&quot;&quot;&gt;in[3]&lt;/b&gt;&lt;/font&gt;" style="text;strokeColor=none;align=center;fillColor=none;html=1;verticalAlign=middle;whiteSpace=wrap;rounded=0;fontSize=16;fontColor=#1D3557;" parent="1" vertex="1">
          <mxGeometry x="-103" y="245" width="60" height="34" as="geometry" />
        </mxCell>
        <mxCell id="VEPIWmzKljLsFqg-EmJU-20" value="&lt;b&gt;&lt;font style=&quot;font-size: 24px;&quot;&gt;BLOCK DIAGRAM:&lt;/font&gt;&lt;/b&gt;" style="text;align=center;html=1;verticalAlign=middle;whiteSpace=wrap;rounded=0;fontSize=16;fillColor=#dae8fc;strokeColor=none;" parent="1" vertex="1">
          <mxGeometry x="-95" y="-27" width="220.33" height="55.33" as="geometry" />
        </mxCell>
        <mxCell id="VEPIWmzKljLsFqg-EmJU-21" value="&lt;b style=&quot;font-size: 22px;&quot;&gt;&lt;i style=&quot;font-size: 22px;&quot;&gt;&lt;font style=&quot;font-size: 22px;&quot;&gt;4x1 Multiplexer&lt;/font&gt;&lt;/i&gt;&lt;/b&gt;" style="text;strokeColor=none;align=center;fillColor=none;html=1;verticalAlign=middle;whiteSpace=wrap;rounded=0;fontSize=22;fontColor=#1D3557;shadow=1;gradientColor=none;textShadow=1;" parent="1" vertex="1">
          <mxGeometry x="86" y="398" width="166.83" height="49.5" as="geometry" />
        </mxCell>
      </root>
    </mxGraphModel>
  </diagram>
</mxfile>
